<?xml version="1.0" encoding="utf-8"?>
<!-- Generator: Adobe Illustrator 19.0.0, SVG Export Plug-In . SVG Version: 6.00 Build 0)  -->
<!DOCTYPE svg PUBLIC "-//W3C//DTD SVG 1.1//EN" "http://www.w3.org/Graphics/SVG/1.1/DTD/svg11.dtd">
<svg version="1.1" id="Layer_1" xmlns="http://www.w3.org/2000/svg" xmlns:xlink="http://www.w3.org/1999/xlink" x="0px" y="0px"
	 viewBox="-241 -445.7 1500 1500" style="enable-background:new -241 -445.7 1500 1500;" xml:space="preserve">
<style type="text/css">
	.st0{fill:#006642;}
	.st1{font-family:'Aller';}
	.st2{font-size:350.3173px;}
</style>
<desc>Generated with Qt</desc>
<g>
	<g transform="matrix(1,0,0,1,0,0)">
	</g>
	<g transform="matrix(11.8081,0,0,11.8081,0,0)">
	</g>
	<g transform="matrix(11.8081,0,0,11.8081,0,0)">
	</g>
	<g transform="matrix(11.8081,0,0,11.8081,0,0)">
	</g>
	<g transform="matrix(11.8081,0,0,11.8081,81.0766,76.2178)">
	</g>
	<g transform="matrix(11.8081,0,0,11.8081,81.0766,76.2178)">
	</g>
	<g transform="matrix(11.8081,0,0,11.8081,81.0766,76.2178)">
	</g>
	<g transform="matrix(11.8081,0,0,11.8081,81.0766,76.2178)">
	</g>
	<g transform="matrix(11.8081,0,0,11.8081,81.0766,76.2178)">
	</g>
	<g transform="matrix(11.8081,0,0,11.8081,81.0766,76.2178)">
	</g>
	<g transform="matrix(1,0,0,1,0,0)">
	</g>
	<g transform="matrix(11.8081,0,0,11.8081,81.0766,76.2178)">
	</g>
	<g transform="matrix(11.8081,0,0,11.8081,81.0766,76.2178)">
	</g>
	<g transform="matrix(11.8081,0,0,11.8081,81.0766,76.2178)">
	</g>
	<g transform="matrix(11.8081,0,0,11.8081,81.0766,76.2178)">
	</g>
	<g transform="matrix(11.8081,0,0,11.8081,0,0)">
	</g>
	<g transform="matrix(11.8081,0,0,11.8081,0,0)">
	</g>
	<g transform="matrix(1,0,0,1,0,0)">
	</g>
</g>
<g>
	<g>
		<path class="st0" d="M336.1,320.9l67.3-74.1c-16.1-17.7-30.2-36.8-42.1-56.7l10.7-8.4c-72.5-123.7-60.1-285.1,41.4-396.9
			c62.6-68.9,147.1-105.9,233.2-110v0c16.6-0.8,33.2-0.4,49.7,1.3c-18.7-7.5-43.7-17.1-71.4-26.7C566.1-371,482-377,482-377
			s-15.6,16.8-105.7,38.4c-90.1,21.6-132.1,27.6-132.1,27.6s-88.9-43.2-151.4-55.3c-62.5-12-115.3-9.6-118.9-8.4
			c0,0,36,62.5,56.5,133.3s30,122.5,30,122.5S33.9-57.5,20.7,0.2S-6.9,110.7-6.9,110.7s27.6,76.9,44.4,144.2s18,116.5,18,116.5
			s-19.2,49.3-36,116.5s-24,147.8-24,147.8s9.8-2.1,29.8-2.7L319.6,309C324.7,312.4,330.3,316.5,336.1,320.9z"/>
		<path class="st0" d="M979.4,126.8c-14.5,39.9-36.9,77.8-67.2,111.2c-101.5,111.8-261,139.6-391.1,79.2l-7.3,11.5
			c-21-9.9-41.3-22.1-60.5-36.4l-67,73.8c4.9,5.3,9.4,10.5,13.2,15.5L158.9,646.2c77.8,13.6,128.5,24.3,128.5,24.3
			s61.3-13.2,115.3-30c54.1-16.8,78.1-31.2,78.1-31.2s26.4,2.4,108.1,30s140.5,40.8,140.5,40.8s62.5-13.2,124.9-27.6
			c62.5-14.4,127.3-38.4,127.3-38.4s-3.6-24,20.4-117.7c24-93.7,42-134.5,42-134.5s-2.4-21.6-18-94.9
			C1012.4,202.3,985.6,140.5,979.4,126.8z"/>
	</g>
	<path class="st0" d="M854.4-199.5c-59.5-54-134.2-80-207.6-77.5h0c-73.4,2.4-145.4,33.3-199.4,92.7C359.9-88,351.7,48.1,415,153.8
		l0.7-0.6c10.8,18.8,23.8,36.6,39.1,52.9c0.2,0.2,0.4,0.5,0.7,0.7c2.2,2.3,4.4,4.5,6.6,6.8c3,2.9,6,5.8,9.1,8.7
		c3.1,2.9,6.4,5.6,9.6,8.3c2.3,1.9,4.7,3.8,7.1,5.7c0.3,0.3,0.7,0.5,1,0.8c17.7,13.6,36.7,24.9,56.4,33.8l-0.5,0.8
		C656,324.5,790.7,303.4,878.2,207C986.3,88.1,973.4-91.5,854.4-199.5z M765.5-202.5l0.6-0.5l0.7-0.3l0.8-0.1l3,0.4l0.6,0.3l0.2,1.1
		l-0.3,1.3l-0.5,1.2l-0.4,0.7l0.1-0.8l0-0.5l0.1-0.4l0.2-0.5l-1.4-1.1l-1.5-0.1l-1.4,0.2l-1.4-0.2L765.5-202.5z M630.8-168.4
		l0.1-0.5l0,0l0-0.1l-0.1-0.8l0.9-0.6l0.3-0.1l-0.1-0.3l-0.2-0.3l-0.1-0.2l0.5-0.6l0.4-0.1l0.4,0.2l0.3,0.5l0.9,0.4l0.7,0.5l0.5,0.9
		l0.2,1.7l-2.6,0.8l-1.3-0.1l-1-0.7L630.8-168.4z M527.1-67.7l1.6,0l1.3-0.3l1.1-1l0.8-2l0.4,0.6l0.5,0.2l0.5-0.2l0.6-0.6l1.3,1.7
		l1.6-0.4l1.6-1.1l1.3-0.6l5.3,0.3l1.1,0.6l1.2,2.8l-1.2,0l0.1,0.8l0,0.8l-0.2,0.7l-0.4,0.5l0,0.8l0.7-0.4l0.7-0.2l0.6,0.1l0.5,0.5
		l0,0.7l-0.5,0.8l-0.4,1.6l-0.2,1.8l0.2,1.4l-1.3,1.2l-1.1-0.7l-1.1-1.5l-1.3-1.3l-0.8-0.1l-0.8,0.1l-0.6-0.2l-0.2-1l0.2-1.5
		l0.2-1.2l0-1l-0.6-0.9l-1.2-0.4l-4.6,0.9l-1.6-0.3l-3-1.2L527-67L527.1-67.7z M510.1,147.6l-0.2-0.8l1.1-1.4l3.3-2.1l0.6-0.5
		l1.2,0.1l0.4,0.1l0.5,0.5l0.4,0l0.7,0.1l0.2,0.7l-0.5,0.8l-1.2,0.7l-2.5,1.1l-2.2,0.2l-0.6,0.6L510.1,147.6z M543.3,176.4l-0.7-0.3
		l-1-0.5l0.2-1l0.9-0.8l1.2-0.4l1.5-0.1l2.2,0.4l0.5,0l0.6-0.1l0.5,0.4l-0.5,0.7l-0.4,0.2L543.3,176.4z M817.6-118.5l0.2,0.4l0,0.5
		l-0.3,0.6l-1.1,1.8l-0.3,1.3l0.5,1.7l-0.2,1.7l-0.6,0.8l-0.8,0.7l-0.3,0.8l0.9,1.1l-0.9,0.5l-0.7,1.5l-0.8,0.2l-0.7-0.7l-0.6-1.4
		l-0.7-2l-0.7-0.3l-0.7-0.9l-0.5-1.1l-0.1-1.1l0.4-1.2l1.3-1.8l0.2-1.6l-0.3-3.2l-0.7-2.3l-1.1-1.7l-4.3-3.8l-1.6-0.9l-1.8,0l0,0.7
		l0.5,1l-0.1,1l-0.5,0.9l-0.6,0.6l0.8,0l0.7,0.4l0.5,0.5l0.5,0.3l2.2,0.1l0.7,0.6l-1,0.4l-1.3,0.3l-0.4,0.5l1.8,1l-0.2,1.2l0,1.2
		l0.4,0.9l0.8,0.2l-0.1,0.4l-0.1,0.3l-0.3,0.7l0.5,0.6l-1.5,5.4l-0.4,1l-2.1,1.8l-0.6,1.1l2.4-1l2.7-1.7l2.5-0.8l1.8,1.8l0.7,3.9
		l-0.6,3l-1.5,2.4l-1.9,2.1l-0.3,0.1l-0.7-0.2l-0.3,0.1l-0.3,2.1l-0.4,0.3l-0.5,0.3l-0.5-0.1l-0.2-0.8l-0.8-0.7l-3.5-0.2l-2.6,0.3
		l-2.6,1l-1.2,0.3l-1.2,0.5l-0.3,1.2l0.2,3.5l0,0.4l-0.1,2l-0.3,2.1l-0.5,2l-0.6,1.7l-1.1,1.4l-2.5,1.4l-1.8,2l-2.5,2l-0.8,0.4
		l-2.4,0.3l-1-0.2l-1.1-0.7l0-0.6l1.2-0.6l0.5-0.1l-4.7-1.6l-0.8,0l-0.7-1.9l-1.6-0.6l-1.8-0.1l-1.3-0.5l-0.4,0.7v0l3.9,3.6l1,0.5
		l0.4,0.3l0.9,1.4l0.4,0.3l1.3,0.1l0.5,0.2l0.5,0.3l1.2,1.7l-0.2,1.3l-1.9,2.4l-1,0.4l-1.5-0.5l-1.4-0.9l-0.8-0.7l-0.9,0.2l-4.3-1.7
		l-3.2-0.4l0,0.8l0.7,0.5l-0.3,1l-0.7,1.4l-0.4,1.7l-0.3,3v1.8l0.4,1.8l1.4,1.8l2.1,1l4.5,0.5l0,0.8l-0.6,1.8l0,1.8l0.6,1.6l1.4,1.1
		l-1.2,1.4l-0.2,2.8l0.2,2.7l0.4,4.5l0.3,1.5l0.4,1.5l0.5,1.1l0.6,0.5l0.9,0.6l0.7,0.4l1.1,2.5l1.7,1.1l1.9,0.8l1.2,0.9l0.5,0.9
		l0.5,1.4l0.2,1.5l-0.4,1.4l-1,1.7l-0.3,0.7l-0.1,0.8l-0.4,0.9l-0.7,1.9l-0.5,0.8l-0.5-1l-1.1-0.1l-1.2,0.5l-1,0.8l4,1.8l0.3,1.1
		l0.3,1.2l0.6,0.7l-0.2,0.3l-0.4,0.8l-0.2,0.3l1,0.5l2.5,0.1l1.1,0.7L783.3-4l-0.8,0.1l-0.9-0.7l-0.9-0.4l-0.3-0.2l-0.8-1l-0.2-0.2
		l-0.6,0.1l-1.1,0.5l-0.4,0.1l-3.5,2.9l-0.1,1.1l0.4,0.9l1.5,1.5l1.3,1.8l0.8,0.7l1.7,0.4l0.7,0.5l0.5,0.1l0.8,0.3l0,0.8l-0.3,0.9
		l-0.2,0.4l0,2.3l0.1,1.4l0.4,1.5l0.7,1.1l0,0l0.7,0.9l0.4,1.1l-0.4,1.9l0.9,1.2l2.2,4.4l-0.1,0.4l0,0.1l-0.1,0l-0.2,0.2l0.3,1.7
		l0,2.5l-0.3,2.5l-0.5,1.6l-0.2,1.7l0.9,1.6l2.7,2.9l0.2,0.8l-0.8,0.4l-0.3,0.5l-0.6,1.9l-0.3,0.4l-0.7,0.7l-2,5l0.5,0.8l-2.6,2.6
		l-0.7,1l-0.7,1.5l-1.4,4.9l0.4,2.3l-0.2,0.5l-1,2.6l-2.8,5.3l-0.3,1.9l0.1,1.5l0.7,2.9l0.2,1.6l-0.1,4.4l-0.8,1.8l-3.7,6.4
		l-1.1,1.4l-1,0.6l-0.9,1.4l-1.4,2.7l-0.6,1.6l0,1.9l0.2,1.8l-0.1,1.4l-0.5-0.8l-0.5-0.5l-0.6-0.2l-3.6,0.4l-1.3-0.4l0.3-1.9
		l-0.6,0.2l-0.5,0.3l-0.5,0.4l-0.5,0.5l0,0.6l1,0.3l0.9,0.8l0.7,1.1l0.5,1.3l-0.4,1.1l2,0.4l0.6,0.8l0.4,1.1l0.8-0.9l1.4-2.6l0,0.6
		l-1,2.2l1.3,2.3l3.3,3.2l-1.7,4.5l-0.8,1.2l-0.6,0.6l-0.5,0.2l-0.6-0.1l-0.8-0.6l0.1-0.5l0.5-0.5l0.5-1.3l-0.1-0.4l-0.7-0.1
		l-0.4,0.2l-0.5,0.8l-0.8,0.7l-0.1,0.2l-0.2,0.1l-2.7,0.1l0-0.6l1.3,0l-0.9-0.7l-0.6,0l-1.1,0.8l-3,0.7l-2.6,1.6l-1.1-0.1l-1.7-1.7
		l-1.2-0.6l-4.7-1.3l-4.4,0.8l-1.2-0.3l0-0.8l0.9-0.4l0.9-0.9l0.6-1.3l0.1-1.6l-0.7,1.1l-1.1,1.1l-1.2,0.5l-1.2-0.5l-0.4,0.6
		l0.1,0.8l0.1,0.3l0,0.3l-0.2,0.8l0.7-0.5l0.2-0.3l0.4,0l-0.2,1.5l-0.2,0.6l-0.5,0.7l0.4,0l0.4,0l0,0.8l-0.2,0l-0.4,0l-0.2,0
		l0.5,0.7l-4.5,2.9l-0.6,0.7l-0.7,1.3l-0.8,0.9l-1.1-0.6l0.6-1.3l0.7-0.7l0.8-0.5l0.7-0.8l0-1l-1.2-4.2l-0.4-0.7l-0.6-1l-0.7-0.8
		l-0.7-0.4l-0.7-0.7l-1-3.2l-0.8-1.1l0.2,1.2l0.2,1.1l0.1,0.5l0.1,1l0.2,0.5l0.9,1.7l0.2,1l-0.8,2.6l0.2,1l1.6,0l0,0.7l-1,0.8
		l-1.8,2.5l-1.1,0.9l-1.4,0.3l-2.9,0.1l-1.4,0.4l0.4-1.2l1.8-2.4l-1.4-0.6l-0.8-0.1l-0.9,0.1l0,0.6l0.4,0.3l0.2,0.3l0.1,0.3l0.2,0.4
		l-0.7-0.1l-0.8-0.5l-0.5-0.1l-0.8,0.3l-0.4,0.6l-0.3,0.7l-0.4,0.5l-1.3,0.6l-1.2,0l-2.4-0.6l-12.1,1.4l-4.3,2.4l-2.3,0.6l-0.3,0.3
		l-0.2,0.5l-0.3,0.5l-0.6,0.1l-0.4-0.4l-0.3-0.7l-0.2-0.7l-0.2-0.3l-1.1,0.3l-1.2,0.9l-0.8,1.4l0.2,1.7l0.6-0.8l1-0.2l1.2,0.3
		l1.9,0.8l0.5,0.1l0.1,0.4l-0.4,1.3l-2,1.5l-0.2,3.1l-0.2,0.7l-0.5,0.2l-0.6,0.1l-0.5,0.4l-1.2,0.7L684,140l-1.3,0.7l-0.5,1.4l0,1.1
		l-0.4,0.5l-6.7-0.9l-0.2-0.4l-0.1-0.9l-0.3-0.9l-0.7-0.4l-0.1,0.3l-0.1,0.2l-0.1,2.4l-0.2,0.9l-0.8,1.4l-0.9,1.1l-1.1,0.7l-1.3,0.1
		l1.9,1.7l0.8,0.3l-0.7,1l-1.4,0.6l-2.6,0.6l-3.3,1.5l-0.9,1.3l1.2,1.4l-1,0.6l-4.8,1l-2.4,1l-4,0.4l-1.8-0.2l-0.7,0l-0.6-0.1
		l-0.3-0.4l0.2-0.7l0.4-0.5l0.6-0.4l0.6-0.2l-0.1-0.4l-0.3-1l0.9-0.2l0.9-0.4l0.9-0.6l0.8-0.9l-0.4-0.2l-0.3-0.3L652,152l-0.6,0
		l0.5-1.3l0.3-0.4l0.5-0.3l-0.3-0.9l-0.4-0.2l-0.5,0.3l-0.6,0.8l-0.8-0.6l-1.3-0.3l-2.6,0.1l0-0.6l-0.5-0.5l-1.1,0.3l-1.2,0.5
		l-1.2,0.3l-2.6-0.2l-1.3,0.2l-1.3,0.7l2.1,0.8l2.7,0.4l1.6,1.2l-1.2,3.2l2.4-0.2l0.7,0.2l0,0.6l-0.4,0l0,0.8l0.6,0.5l0.3,0.2
		l-0.9,0.2l-0.4,0.2l-0.4,0.3l2.2,0L645,160l-0.2,0.4l0.1,0.6l0.3,0.5l0.1,0.6l-0.3,0.8l-2.1,2.3l-0.7,1.1l-1.7,0.9l-2.4,0.6
		l-0.8,0.6l-0.8,1.2l-0.4-1.2l-0.9-0.9l-1-0.4l-0.8,0.2l0.9,0.7l0.3,1.2l-0.3,1.1l-1,0.6l-0.4-2.1l-1.4-0.8l-2.9-0.1l0,0.6l0.6,0.4
		l1.3,0.1l0.7,0.2l0.6-0.7l0.4-0.1l0.3,0.8l-0.1,0.6l-0.4,0.5l-0.5,0.3L631,171l-1,2.4l-0.2,0.7l0.1,1.1l0.3,1.6l0.1,1.2l-0.8-0.7
		l-0.9-2.1l-0.9-0.7l-1-0.1l-3.1,0.8l-7.6-0.8l0.9,1l1.1,0.4l2.3,0l0,0.8l-0.4,0.3l-0.4,0.4l1.3,0.7l-0.7,0.6l-0.4,0.8l-0.1,0.9
		l0.3,1.2l-2.4-0.3l-0.6,0.4l-0.5-0.4l-0.4-0.7l-0.5-0.4l-2.4,0l-0.7-0.2l-0.5-0.3l-0.4-0.1l-0.4,0.5l-1.3-0.6l-0.9,1.2l-0.7,1.8
		l-0.6,1.2l-2.3,0.7l-0.4,0.2l-0.3,1.1l-0.6-0.3l-0.5-0.8l-0.2-0.4l-0.4-0.2l-1.3-1l-0.7-0.2l-0.7,0.1l-1,0.5l-3.5,0.7l-0.8-0.3
		l-1.4-0.9l-0.8-0.2l0,0.8l0.3,0.2l0.5,0.5l-0.5,1.2l-0.8,0.9l-1,0.5l-1,0.2l-1.7-0.5l-0.5,0.2l0.2,1l0,0.6l-0.9,0l-0.5,0.6
		l-0.3,0.8l-0.5,0.6l-0.7,0.1l-0.6-0.3l-0.6-0.2l-0.8,0.4l0-0.7l-0.1-0.5l-0.2-0.4l-0.1-0.6l-1.8,1.1l-0.2,0.9l-0.4,0.1l-0.5,0
		l-0.5,0.4l-0.8,0.7l-0.9,0.3l-2.1,0l0.7-0.5l0.6-0.5l0.5-0.7l0.4-1l-0.9,0.6l-0.8,0.3l-0.2-0.3l0.6-1.4l0.7-0.9l1.6-1l0.8-0.7
		l-0.2-0.2l-0.1-0.1l-0.1-0.1l-0.1-0.4l-0.5,0.5l-2.1,1.2l-0.3,0.6l-0.6,0.7l-1.4,1.2l-0.8-1.1l0.1-1l0.5-1.1l0.3-1.5l-0.4-0.6
		l-1-0.6l-1.2-0.2l-0.9,0.4l0.5,1.2l-1.8,0.8l-4.6,0.9l-0.3,0.4l-0.1,1l-0.2,0.3l-1.1-0.1l-0.4,0.1l-1.3,1.2l-0.7,0.3l-1.1,0l-0.1-1
		l-0.8-1.2l-0.9-0.5l-0.5,0.9l-3.6,3.1l0.4,0.5l0.2,0.2l0.3,0.1l-4.4,2l0.2-1.1l-0.6,0.2l-1.9,1.7l-0.4-0.8l-0.5,0.7l0.1-1.3
		l0.1-0.5l0.2-0.4l0-0.6l-0.6-0.2l-0.3-0.2l-0.5-1l1.4-0.4l1.2-0.8l2.3-2.2l1.2-0.8l2.3-0.6l1.4-0.7l1.2-0.9l2.9-3.1l1.2-0.9l2.3-1
		l1.4-0.8l-2.9-0.4l-12.5,6l-4,0.2l2.7-1.7l0.6-0.2l0.6-0.4l0.5-1l0.6-1l2.5-0.8l8-4.1l0.9-1.3l2.1-0.2l2.4-1.2l2.4-0.5l1.9-0.8
		l0.2-1.7l0.3-0.5l0.3-0.6l0.3-0.3l0-0.6l-0.9-0.5l-1,0.6l-1.1,0.4l-1.4-1.2l-0.6,0l-0.3-0.1l-0.1-0.4l0.1-1.3L567,163l-0.4-0.4
		l-0.5-0.5l-0.6-0.4l-0.6-0.2l0.2,1.3l-0.1,0.9l0,0.9l0.7,1.1l-1.3,0.3l-0.9,0.6l-1.8,1.8l-1.3,0.8l-1.4,0.4l-4.2,0.4l-2.2,0.9
		l-8.1,1l-2.7,1.1l-1,0.7l-0.1,0.3l0,0.4l-0.1,0.4l-0.2,0.3l-0.4,0.2l-4.1,1.2l-1.6,1.2l-0.7-0.1l-1.2-0.6l-0.6-0.1l-3,0.3l-1.5,0.6
		l-1.1,1.1l-0.4-0.8l0.5-0.3l0.1-0.6l0.1-0.6l0.2-0.5l0.4-0.3l4.4-1.1l1-0.6l0-0.5l-0.1-0.1l-0.2,0l-0.2-0.1l0.3-1.3l-0.5-0.8
		l-0.9-0.3l-1,0l0.8-1.2l1.4-0.2l2.6,0.3l1.4-0.6l3.1-2.8l0-0.8l-2.6-0.1l1.1-1.8l2-1.5l2.2-1l1.7-0.4l-0.2,0.5l-0.4,1l-0.3,0.6
		l1.1-0.2l1.1-0.5l0.8-1l0.2-1.7l0.8,0.6l1.1,0.2l2.4,0l0-0.7l-0.5-0.1l-1.3-0.6l0-0.6l0.9-0.5l1.7-1.9l1.3-0.7l0.8-1.4l0.3-0.4
		l0.5-0.1l1.7,0.2l2.1-0.6l3.8-2l2-0.6l0-0.8l-4.6,0.5l-6.7,2.4l-1.2,0.7l-0.5,0.6l-0.4,0.7l-2.1-0.1l-1,0.3l0.4,0.8l-1.9,1.2
		l-0.7,0.2l0.1-0.5l0.2-1.2l0.1-0.5l-0.9,0l-0.5,0.4l-0.4,0.6l-0.4,0.4l-0.8,0.3l-1.5,0.2l-0.7,0.2l-2.8,2.1l-1.5,0.6l-1.4-0.8
		L533,160l-1.6,1.3l-1.7,1l-1.6,0.5l0.4-1.3l-5.9-3l2.5-0.7l0.7-2.5l-1-2.6l-2.5-1.3l-0.7,0.5l-1.7,2.4l-0.7,0.5l-0.8,0.4l-2,1.8
		l-1,0.6l-0.3-1.3l0.9-3l-0.4-1.4l-0.9-0.2l-1.3,0.1l-0.8-0.2l0.5-1.1l0-0.5l-0.1-0.1l-0.2,0l-0.1-0.1l0.1-0.4l0.1-0.2l0.1-0.3
		l0.1-0.5l-0.2,0l-0.4,0l-0.2,0l0-0.7l2.1-0.2l5.3-1.7l1.1,0l0.5-0.3l0.2-0.7l0-0.7l-0.2-0.3l-0.9-0.6l-0.5-1.2l-0.6-1l-1.2-0.2
		l0-0.6l0.7-0.5l1.6-0.5l0.8-0.4l-0.4-1.5l1.3-0.6l1.8-0.3l1.7-1.1l4.1-1.8l6-1.1l2.6-1.4l1.5-3.5l0.5,0L540,129l0.6,0.8l0.9,0.2
		l0.9,0l-0.2-1l1.5-6l1.9,1.2l2,0.2l4.7-0.5l-0.4-0.4l-0.5-0.7l-0.3-0.3l2.2-1.4l-12.6,0.4l0.8,2.1l-0.4,1.2l-0.3,0.4l-0.3-1.7
		l-0.6-0.7l-0.8-0.5l-0.9-0.3l-1.9-0.2l-8.6,1.9l-1.5,0.9l-0.7-0.6l-0.6-1l-0.6-0.6l-0.7,0.2l-0.4,0.6l-0.5,0.3l-1.6-1.7l-0.7-0.1
		l-1.8,0.5l0,0.6l0.6,0l0.5,0.2l1,0.6l0,0.6L519,124l-3-1.1l-1.5-0.1l0,0.7l0.2,0.3l0.6,0.3l-1.4,0l-2.5,1.1l-1.4,0.2l-1.5-0.6
		l-0.4-1.3l-0.1-1.7l-0.5-2.1l0.6-0.3l1.2-1.1l0-0.6l-0.6-0.8l0.8-0.9l1.4-0.7l1.2-0.3l-0.5,1.4l1.4,1.2l0.8,0.3l0.6-0.4l0.2-0.8
		l-0.2-0.7l0-0.7l0.8-0.9l-0.6-0.5l-0.3-0.1l0.6-1.6l0.8-0.4l0.9,0.1l1.2-0.2l0.8-0.7l1.5-2.2l0.7-0.4l6.6-1.7l1,0.9l-0.9,3.9
		l0.1,0.6l4.1-0.5l1.9-1l1.7-1.8l0.6-2.1l-1.4-2l2.2,0l0.7,0.4l-0.3,1l0.3,1.5l0,1.6l0.2,1.3l0.9,0.6l1,0.2l1.9,1l2.1,0.5l2.6,0.1
		l0.9-0.5l1.4-1.7l0.7-0.4l0.8,0.3l-0.4,0.3l-0.4,0.4l1,0.7l4.6-0.5l-1-1.1l-0.9-0.3l-2-0.1l-2-1.2l-0.9-0.3l-1,0.7l-0.5-0.5
		l-0.3-0.6l-0.2-0.8l-0.1-1l0.7,0.8l0.6,0.4l0.7,0l1-0.4l-0.8-0.5l-0.4-0.2l-0.5-0.1l0-0.8l0.6,0l1.6-0.6l-0.7-1.7l0.3-5l-1-1.1
		l-3.3-0.7l-1.7-0.9l-1.1-1.3l1-0.9l1.2-0.4l4.2-0.2l6.3-2.8l0.9-0.7l1-1.4l1.1-0.6l1.6,0.1l1.6,0.5l1,0.6l-0.2-1.4l-0.7-0.7l-1-0.2
		l-1.1,0.1l0.4-0.5l0.1-0.5l-0.1-0.5l-0.4-0.5l0-0.7l0.5-0.6l0.1-0.6l-0.1-1.2l0.2-0.7l1.5-1.8l0.3,0.3l0.4-0.3l0.5-0.5l0.7-0.2
		l2.5,0.8l5,0.1l0.5,0.2l0.6,0.5l0.6,0.2l0.6-0.5l0.5-0.7l0.4-0.3l0.5-0.1l4.7,0.3l0.2,0l0.5,0.2l0.9-0.4l4,0.2l2.2-0.4l1-0.4
		l0.9-0.9l0.9-0.6l7.6-2.3l1.2-0.8l0.5,1.1l1.1,0.3l1.3-0.2l0.9-0.4l0.4-0.6l0.4-0.9l0.5-0.9l0.7-0.4l10.9-1.3l2.1-0.7l-1.1,0
		l-4-1.7l-2.1-0.5l-4.1,0.6l-1.1-0.2l-0.7-0.5l-0.1-0.7l0.8-0.7l0-0.7l-0.2-0.9l0.1-1.2l-0.1-1.1l-1-0.4l0.5-0.8l0.7-1.3l0.5-0.6
		l-1.6,0.4l-2,1l-1.5,1.3l-0.2,1.3l-2.1,3.8l-5.6,7.4l-1.2,0.6l-5.6,0.5l-0.3,0.3l-1,1.4l-0.6,0.4l-0.8,0.1l-0.8-0.1l-0.7-0.3
		l-0.6-0.5l1-0.9l1.4-0.9l1.1-1.1l0-1.4l-2,1.2l-4.6,1.4l-3.2,0.1l-1.4-0.3l-1.2-0.6l-0.5-0.9l-0.4-0.6l-2.1-0.3l-0.8-0.9l0.4-1.6
		l-0.7-0.6l-2.3,0l0,0.7l0.6,0.2l0.5,0.4l0.4,0.6l0.2,0.8l-4.8,2.1l-2.8,0.5l-1.4,0.6l-0.6,1.1l-0.2,1.4l-0.5,0.2l-0.6-0.4l-0.4-0.2
		l-1.7,1.2L543,79.3l0-0.6l1.1-0.5l2.7-1.9l3.2-0.8l12.9-11.9l-0.2-0.4l-0.2-1l0.7-0.3l0.9-0.7l0.6-0.3l0.8-0.2l1.9,0.3l0.7-0.1
		l1.2-0.5l0.7-0.1l0.6-0.4l0.3-1l0.2-1.2l0.5-0.9l-0.3-0.4l0-0.1l0.2-0.1l0.2-0.7l-0.5-0.8l0.7-0.4l0.7-0.6l0.7-0.8l0.6-0.9l0.4-0.9
		l0.2-0.8l0.3-0.6l0.5-0.4l0-0.7l0.1-1.4l3.9-3.7l0.7-2l-1.2-0.4l-4.9,0.2l-1.6-0.6l1.8-1.7l0.8-0.9l1.9-3.1l0.6-0.7l0.7-0.5
		l-0.5-0.7l3.4-6.3l1.4-1.4l1.1-1.7l0.9-2.2l1.1-1.8l1.3-0.5l1.4,0.9l2.9,2.8l1.3,0.6l1.2-0.4l1.3-0.8l1.4-0.4l1.5,0.9l0.2-1.6
		l-0.9-0.9l-2.7-0.9l0-0.8l3.6-0.6l1,0.4l1.9,1.6l1.2,0.2l0-0.6l-2.5-1.5l0-0.8l1.4,0.7l0.8,0.1l0.7-0.8l0.7-0.3l0.5,0.1l-0.3,1
		l0.6,0.9l0.7,0.6l0.8,0.4l0.9,0.2l-0.5-2.1l-0.3-0.8l-0.4-0.6l0.8-1.5l1-1.1l2.1-1.5l-0.6,0l-1.2,0.5l-0.5,0.1l-6.1-0.3l-0.9-0.5
		l1.1-0.7l2.8-0.7l1.2-0.1l0-0.7l-1.7,0l0-0.6l0.6-0.5l1.6-0.5l0.8-0.4l0-0.7l-4.9-0.8l-1.2,0.2l-2.2,0.9l-20,1.3l-2,0.9l-0.9,0.7
		l-1.4,0.3l-2.6-0.1l-1.3-0.7l-0.7-1l-0.5-1l-0.8-0.9l1.2-1.8l-0.4-1.2l-1,0l-0.6,1.9l-0.3,2.2l-0.7,1.3l-1,0.1l-1-1.3l0-0.8
		l1.2-2.1l-0.4-4.6l1.2-0.9l0.2,0.1l0.6,0.5l0.4,0.1l0.3-0.2l0.4-0.9l0.2-0.2l0.2-0.4l-2.4-2.5l0.7-0.8l2.3-1.3l-2.2-0.2l-1.1,0.2
		l-0.9,0.6l0.8,1.2l0.1,1.8l-0.6,1.5l-1.2,0.4l-1.1-1.2l0.3-1.9l0.7-1.8l0-0.8l-0.3-0.2L563-6l-0.3-0.2l-0.4,0.4l-0.9,1.1l-0.8,0.3
		l-0.5,0.8L559.6-2L558,0.6l-1,1.2L554.1,3l-1,0l-1-1.2l-1.2-1.1l-2.7,0.6l-0.9-0.7l0.3-0.4l0.3-1.3l0.2-1.2l0.2-0.7l0.4-0.4
		l0.5-0.1l0.8,0l1-0.3l2.5-1.6l0.9-0.8l0-0.6l-2.1-0.1l0-0.8l1.3-0.6l0-0.7l-0.9,0l-0.7,0.3l-1.4,1l0,0.7L550-6.6l-0.9-0.1l-0.3-1.2
		l0.4-0.9l1.2-0.8l0.6-1l-0.8,0.1l-0.5,0.5l-0.4,0.5l-0.6,0.2L548-9.5l-0.5-0.4L547-10l-0.7,0.6l-0.2,1l0.1,1.2l0,0.9l-0.7,0.4
		l-0.7,0.1l-1.1,0.5l-2.4,0l-0.8-0.2L539.9-6l-0.6-0.9l-0.3-0.9l-0.4-0.7l-0.8-0.3l-2.5,0.4l-1.5-0.2l-0.8-1l-0.5,0.5l-0.5,0.2
		l-1.1,0l0.6-1.6l0.7-1.1l0.9-0.6l1.3-0.1l2.3,0.6l0.9-0.1l0.9-1l0-0.8l-0.7-0.1l-0.6-0.4l-0.4-0.7l-0.3-1l1.3,0.3l1.5,0.7l1.2,0.3
		l0.6-1.1l-1.2,0.1l-2.3-0.5l-2.3-1.1l-1.2-1.5l0-0.7l-0.3-1.2l-0.5-1.2l-0.6-0.5l-1.8,0.5l-0.7,0l-0.6-0.6l1.4-1.2l1.4,0.1l1.5,0.5
		l1.5,0.1l-0.1-0.5l-0.2-1.2l-0.1-0.5l2.7,0.1l2.7,0.8l0.3,0.4l0.9,1.6l0.6-0.3l0.9-1.3l0.7-0.4l-3.6-2.6l-0.9-1.3l2.3-0.5l4.7,0.6
		l1.8-0.4l2.1-1.3l0.8-0.1l0.6,0.3l1.3,1l2.9,0.6l4.8,0.4l0-0.6l-1-0.6l-4.3,0.3l-2.6-1.1l-4.9-3.2l-0.7-4.6l0.4-2.2l0.7-1.7
		l0.4-1.6l-0.5-1.9l0.6-0.4l2.3-0.4l1.7-0.6l1.4-0.1l0.7-0.2l0.6-0.6l0.4,0L557-46l0.7,0.3l11.3-1.8l0-0.8l-0.9-0.2l-2.4-1.3
		l0.3-0.2l0.3-0.2l0.3-0.2l0.4-0.1l0-0.7l-0.2-0.8l0.7-0.9l2.1-1.7l-0.5-0.1l-1.1-0.7l0.5-0.4l0.4-0.6l0.3-0.8l0.2-0.9l-0.4,0.1
		l-0.3,0.1l-0.3,0.2l-0.3,0.3l-1.7-0.7l-8.7-0.3l-6.1,3.2l-3.3,0.7l-1.9-2.2l0.8-0.6l0.5-2.9l1-0.7l-0.1-1l0-0.5l0.2-0.7l0-0.6
		l-0.5,0l0-0.7l2.9-0.7l0.5,0.3l1.3,1l0.8,0.2l0.7,0.6l0.2,2.4l0.7,0.6l0.5-0.3l0-0.8l-0.1-1.1l0.3-1.2l-0.6-0.6l-0.5-0.8l-0.6-0.6
		l-0.8-0.2l0,0.6L554-64l-0.7-0.3l-0.4-0.8l-0.6-2.6l0.1-0.5l0-0.4l-0.3-0.5l-0.4-0.1l-1,0.1l-0.2-0.4l-0.2-0.7l-0.4-0.6l-0.4-0.9
		l-0.2-1.5l0.3-1.5l0.7-0.5l0.8-0.2l0.7-0.9l-0.8-0.4l0-0.6l0.5-0.6l0.8-0.4l-0.4-0.7l1.7-1.4l-0.6-0.5l-0.7-0.1l-1.6,0.5l0.1,0.8
		l-0.1,0.4l-0.3,0.1l-0.6,0.1l0,0.7l0.4,0l-1.8,2.1l-1.7,0.3l-1.5-1.3l-1.1-2.7l1.2,0.1l2.7-0.7l1.1-0.6l-1.8-1.4l-0.7-1l-0.3-1.2
		l0.4,0.3l0.8,0.3l0.4,0.2l-0.7-1.2l-2-2.4l0.8,0.6l0.7,0.1l0.6-0.4l0.4-0.9l-3-2.7l-1.4-0.6l-0.9,1.1l0.8,1.1l-0.4,0.9l-1,0.4
		l-1.1-0.3l0.5,1.1l0.3,0.4l0,0.7l-0.8-0.1l-0.7,0.1l-1.3,0.7l0,0.6l0.8,0.3l0.3,0.6l0.1,2l-0.5,0l-1.2,0.6l0.8,0.6l0.7,1l0.1,0.9
		l-1,0.4l-1.1-0.1l-0.9-0.4l-0.5-1.1l0-2l0.4-1.2l1.5-2.9l0.3-1.2l0.3-1.8l0.5-0.8l0.7-0.6l0.7-1.3l-1.9-0.1l-0.8-0.4l-0.7-0.9
		l1.1,0l0.6-0.9l0.4-1.3l0.5-1.2l0.7-0.6l2.7-1.5l0.3-0.4l0.2-0.5l0.3-0.4l0.6,0l0.3,0.3l0.1,0.6l0.1,0.7l0.2,0.5l0.8,0.7l1,0.6
		l1.1,0.2l0.9-0.6l0.4,0.8l0.5,0.5l0.5,0l0.6-0.5l0.1,0.3l0,0.2l0.1,0.1l0.3,0.1l-1.4,2.5l-1.5,1.1l-1.5-0.2l-1.5-1.5l-0.4,2
		l0.9,0.6l1.4,0.1l1.1,0.5l1,0.7l0.9-0.7l0.8-1.1l0.9-0.5l-0.8-1.3l0.4-1.6l1-1.4l0.9-0.6l1.3,0.4l2.1,1.6l1.3,0.3l-0.3-0.9
		l-0.5-0.6l-1.2-0.8l0-0.7l0.6-0.2l0.6,0l1.3,0.3l-1.1-0.7l-3.1-0.8l-0.6-1.1l-0.3-1.5l0.1-0.7l3.5-0.9l1.3,0.4l2.2,1.5l1.2,0.4
		l10.3,1l0.7-0.1l1.1-0.5l0.7-0.1l0.5,0.2l0.8,0.9l0.5,0.3l4.8,0.8l0.6-0.1l0.7-0.4l0.7-0.5l0.5-0.6l0.6-0.4l0.7,0.1l2.7,1.3
		l0.5,0.1l0.4,0.4l0.5,1.9l0.3,0.5l1.1-0.2l0.6-0.2l0.1-0.3l0.4,0.8l0.1,0.8l-0.2,0.7l-0.3,0.5l0,0.7l1.3,0.7l0,0.8l-1.2,0.8l0.3,1
		l2.9,2.7l0.7,1.2l0.5,1.6l0,2l0.4,0l0.1-1.9l0.3-1.6l0.1-1.4l-0.3-1.5l1.4-0.6l1.4-1.3l1.1-2.1l0.5-2.7l0.9-1.7l2-0.2l3.6,0.9
		l0.4-0.1l0.3-0.3l0.3-0.2l0.7,0.6l1,0.7l1,0.4l1.3,1l0.9,0.2l3,0L617-95l1.2-1l1.7,1.3l3.7-0.7l1.7,0.9l0.3,1l0.2,1.2l0.4,1
		l1.7,0.7l0.7,0.7l1.2,1.9l0.8-0.6l0.9-0.2l2,0.1l0-0.7l-0.9-0.5l-1.1-0.3l-0.9-0.6l-0.4-1.1l-0.4-0.8l-0.9-0.6l-1.1-0.3l-0.9,0
		l0-0.8l0.4-0.5l0.7-1.2l0.5-0.4l1.3,0.7l0.8,0.2l0.4-0.5l0.7-0.4l4.2,0.8l-0.9-1.2L634-98l-1.2-0.5l-1.1-0.2l-1.2,0.1l-0.4-0.3
		l-0.2-0.8l0.3-1.1l0.7,0.3l1.4,1.2l1.2-0.7l-0.4-1l-1.3-0.8l-1.3-0.4l-6,0l-0.3-0.3l-0.1-1.1l0.3-0.8l0.6-0.7l0.7-0.5l1.7-0.5
		l7-4.9l1-0.3l0.4-0.3l0.2-0.8l0.1-2l0.2-1.8l0.4,0.3l0.4,1.1l0.2,0.6l0.2,0.1l0.1,0.1l0,0.6l1.7-1.2l1.8-0.9l0.2,0l4.9-0.9l0.8-0.1
		l2.7-1.9l1.9-0.4l0-0.8l-2-0.1l-0.9-0.4l-0.8-1l3.3-2.7l-0.1-2l2.8-2.5l-0.2-2.6l0.6,0.4l0.4,0.5l0.5,0.4l0.7,0.2l0.7-3.3l0.3-0.9
		l-0.2-0.2l-0.1,0l0-0.1l-0.1-0.3l-1.1,1.1l-1.2,0.6l-4.1,0.7l-2.2,1.8l-1.2,0.7l0-0.6l0.6-0.9l0.1-0.9l-0.4-0.7l-0.9-0.3l-0.9,0.4
		l-1.5,2l-1.5,0.8l-2.8,3.1l-0.8,0.7l-0.8,0.5l-0.9,0.2l0-0.6l1.5-1.7l0.9-0.8l1.1-0.3l0.8-0.8l-0.2-1.5l-0.7-0.9l-0.9,0.9l-0.4,0
		l0.2-2.3l-0.8,0l-1,1.4L637-130l-0.3,0.6l-0.6-0.5l-0.6-0.8l-0.3-0.7l0.1-0.5l-0.1-0.4l-0.5-0.2l-0.4,0.1l-0.6,0.4l-0.4,0.2
		l-1.4,0.1l-0.7,0.3l-0.6,1.4l-0.8-0.2l-1.2-0.9l-4.5-0.1l-1-0.7l0.5-1l-0.6-0.6l-4.9-2l-1.1,0l0.2-0.4l0.1-0.4l0.2-0.3l0.3-0.4
		l0-0.6l-0.8-0.5l-0.4-0.7l0.1-0.7l0.8-0.3l0.9-0.1l0.7-0.4l0.5-0.7l0.2-1.2l0.7-0.8l4.3-3l1.5-0.6l6,0.2l3.1,1.1l1.6,0l0-0.6
		l-4.2-1.1l-1.1-1.1l0.9-0.4l2.7-0.1l0.7,0.3l0.7,1.2l0.9,1.2l1.1,0.6l1.1-0.5l-3.1-3.2l-2.2-0.8l-2.1-1.6l-1.4-0.2l0.2-1l0.4-0.2
		l0.6,0l0.7-0.2l0.6-0.5l0.8-1.1l0.7-0.6l1.2,1.2l1.3,0.1l2.8-0.5l3.3,1.3l1.2,0l0-0.7l-1-0.2l-1.3-0.6l-0.9-1.1l0-1.7l0.8-0.9
		l2.3,0.4l0.9-0.2l-0.8-0.7l-0.7-1.8l-0.8-0.4l-1.1-0.1l-0.3,0.1l-0.2,0.5l-0.1,0.7l0,0.7l0,0.3l-1.7-0.1l-1.4-1.5l-1.1-2.1
		l-0.7-1.9l0.8-0.6l0.6,0.3l0.6,0.6l0.8,0.3l0.8-0.1l0.8-0.3l1.5-1l-1.7-0.7l-1.3-1.3l-2.2-2.8l0-0.8l0.5-0.5l0.6-0.2l0.7,0.1
		l0.7,0.6l0.6-1l0.2-0.4l-0.4,0l0.3-1.4l0.5-0.3l0.6,0.1l0.7-0.4l1.2-2.5l0.4-0.4l0.6,0.6l0.2,2.4l0.6,0.5l0.3-0.4l0.4-1.9l0.5-0.5
		l-0.7-3l-0.2-1.8l0.3-0.8l0.7-0.7l1-3.2l0.6-1.1l0.9-0.1l3.3,1.5l1.1-0.2l1.8-1l1-0.2l-0.4,0.9l-0.4,0.7l-0.3,0.7l-0.1,1l0.3,0.5
		l0.7-0.6l1.8-2.5l3.6-2.3l1.1-0.4l0.8-0.8l0.5-1.7l0.7-1.5l1.3-0.2l1.6,1.2l-0.5,1.1l-2.7,1.9v0.7l2.5-1.3l0.4,0.3l0.4,0.5l0.9-0.1
		l0.9-0.4l0.6-0.4l0.8,1.5v0.6l-0.2,1.2l0.5-0.2l0.9-0.7l0.9-0.3l-0.3,1l-0.5,0.7l-0.6,0.4l-0.7,0.1v0.7l1.1,0l0.7,0.2l0.5-0.1
		l0.6-0.8l0.7-1.9l-0.2-1.1l-1.3-1.9l-0.4-2.1l0.9-1.3l1.5-1.2l1.5-1.8l0.2,0.5l0.1,0l0.2,0.2l-1.3,4.8l-0.1,0.7l0.1,0.2l0.2,0.4
		l0.3,0.5l0.4,0.3l0.5,0l0.6-0.7l0.5-0.1l0.8,0.4l1.2,0.8l1.1,1l0.5,1l0.1,0.4l0.5,1.3l0.2,0.7l0,0.7l-0.3,1.8l-0.1,0.9l0.5-0.9
		l0.9-2.7l0.4-0.6l0.2-0.7l-0.4-1.6l-0.6-1.6l-0.3-0.6l-0.1-1l-0.3-1.3l-0.5-1.1l-0.7-0.4l-0.5,0.8l0.1,1.5l0.4,1.6l0.4,1.1
		l-0.8-0.2l-0.6-0.6l-0.5-0.7l-0.5-0.6l-1.7-0.5l-0.7-0.7l0.2-1.3l1.6-3.3l0-0.6l2.1,0.3l0.9-0.4l2.1-1.8l0.7-0.3l1,0.4l0.6,1l0.5,1
		l0.5,0.5l0.3,0.7l-0.1,1.6l-0.2,1.6l-0.1,0.6l0.3,0.9l0.8,0.7l1.7,0.8l0,1.2l0.5,1.4l0.7,1.1l0.7,0.5l0.8,0.8l0.1,1.7l-0.3,1.7
		l-0.6,0.8l-0.9,0.3l-0.7,0.6l-1.1,1.3l-3.2,2.1l0,0.7l3.5-0.7l1.1,0.6l-0.6,2.2l-0.7,0.8l-2.9,2.1l-2,2.8l-0.8,0.7l0,0.7l1.2-0.4
		l1.1-0.8l5.6-5.5l0.6-0.2l0.5-1.1l1.2-0.5l1.4-0.3l1-0.5l0.8-1.3l0.3-1.7l-0.3-1.4l-1.1-0.6l-0.3-0.4l0.2-0.9l0.6-1.5l0-2.5
		l-0.4-0.2l-2.4-3.7l-1.4-1.2l-0.5-0.6l-0.3-0.7l-0.2-1.1l0-1l1.3-1.2l0.6-1.8l0.1-2.1l-0.6-1.6l1,0.1l0.9,0.4l0.8,0.1l0.9-0.7
		l-0.2-0.3l-0.1-0.2l0-0.3l-0.1-0.5l1.2,1l1.3,0.8l1.3,0l2.2-2.5l1.2-0.4l1.2,0.6l0.9,1.9l-1.2,0.1l-0.4-0.1l1.1,0.8l1.3,0.6l1.3,0
		l1.2-0.9l-3.8-3l-1.8-2.2l-0.2-2.4l-1.6-0.9l-0.7-0.6l-0.5-0.7l0.9-0.6l1.1,0.2l2,1.1l4,1.4l1,0.1l2.3,1.2l0.8,0.7l3.1,4.6l0.9,0.8
		l2.9,1.3l2.2,0.4l2.7,1.1l1.2,0.9l1.3-0.6l0.8,1.6l-0.2,2.1l-1.7,1.1l-1.6,0.4l-2,0.9l-1.8,1.2l-2,2l-1.9,1.1l-1.6,0.5l-0.8,0.8
		l-2.5,3.6l-0.9,1.7l-0.7,1.9l-0.1,0.4v0l-0.5,1.9l0.9,0l2.7-0.8l1.1,0.1l2.6,1.3l2,0.3l2-0.3l0.7-0.5l1.3-1.7l0.9-0.6l-0.1-1.3
		l0.4-1.9l0.7-1.7l0.7-0.7l0.7-1l0.3-4.7l0.3-1.4l0.9-0.1l2.6,1.7l1.2,0.4l7.6-0.5l6.6-3.3l4.1-0.4l1-0.8l0.9-1.3l1.1-1.1l1.3-0.7
		l1.3-0.2l2.1,1.3l1.4,0.4l2.2-1.5l1.5,0.3l5.8,3.1l0.9,0.2l1.3-0.2l2.2-1l1.1-0.3l2.3,0.4l1.2,0.5l0.5,0.8l0.5,0.3l2.2,2.4l0.6,1.1
		l0,5.7l-0.4,1.7l-0.8,2.2l0.5,0.9l1.1,0.1l1.1-0.1l0.8,0.1l0.9,0.4l0.8,0.6l0.5,0.9l-0.1,1.9l-1,3.8l0.1,0.7l1.7,0.2l1.6,0.8
		l1.4,1.3l1.3,1.7l0.3,0.7l0.4,1.6l0.4,0.8l0.4,0.4l1,0.8l0.5,0.5l0.6,0.8l0.6,1l0.5,1.2l0.2,1.5l0.7,2.8l1.5,0.9l1.8,0.7l1.5,2.1
		l0.4,0l-1.1-2.2l-3.9-3.9l0.9-1.8l1.8,0.4l1.9,1.6l1.2,1.6l0.8,3.2l-0.1,2.9l-0.8,2.3l-1.3,1.5l-1.7,0.9l-3.5,1.2l-1.6,0.9
		l-1.5,1.5l-1.1,1.6l-1.3,2.7l-0.7,1.4l0.7,0.5l0.3,0.9l0.1,0.9l0.2,0.5l0.7,0.1l0.4-0.5l0.3-0.7l0.6-0.7l1.3-2.2l0.6-0.7l2.1-1.1
		l2-1.6l1.3-0.6l0.9,0.3l1,0.7l1.3,0.1l7.1-1.4l0.4,0.3l0.8,1.4l0.6,0.3l0.6,0.2l0.2,0.6l0.1,0.9l0.2,1l1.1,3.6l0.8,1.5l1,0.6
		l0.4,0.8l0.5,4l0.3,1.4l2,2.8l0.4,0.3l-0.4,1L817.6-118.5z M559.5,20.1l1.6,0.7l0.5,0.8l-0.6,0.7l0,0.7l1.4,0.8l0.2-0.1l0.3,0.1
		l-0.1,0.8l-1.1,0.3l-7.2-3.5l-2-1.5l0.7-0.9l1.5,0l1.5,1.2l0.7,0l1.5-0.3L559.5,20.1z M558.3,6.8l0.6-1l0.7-0.5l0.9-0.2l0.8,0.2
		l0.5,0.6l1.4,2.5l-1.3,1.9l-2.1,0.6l-1.1-1.3l-0.2-1.5l-0.3-0.8L558.3,6.8z"/>
</g>
<text transform="matrix(1 0 0 1 -65.2826 978.8475)" class="st0 st1 st2">Ireland</text>
</svg>
